<svg xmlns="http://www.w3.org/2000/svg" xml:space="preserve" style="fill-rule:evenodd;clip-rule:evenodd;stroke-linejoin:round;stroke-miterlimit:2" viewBox="0 0 32 33" title="Experience Icon , Hands on keyboard"><path d="M31.465 8.053H.537V22.45h2.666v-4.8l-.002-.06a1.022 1.022 0 0 1 1.013-1.008l.056.002.06-.002c.553.005 1.005.46 1.008 1.013l-.002.056v-2.133l-.001-.049a1.024 1.024 0 0 1 1.068-1.018l.06-.002c.553.005 1.005.46 1.008 1.013l-.002.056v-2.134l-.001-.055a1.023 1.023 0 0 1 1.068-1.011l.058-.002c.553.005 1.005.46 1.008 1.013l-.002.056v2.134l-.001-.049a1.024 1.024 0 0 1 1.068-1.018l.061-.002c.553.005 1.005.46 1.008 1.013l-.002.056v7.465a2.169 2.169 0 0 1 2.133-2.133v1.6h4.266v-1.6a2.169 2.169 0 0 1 2.133 2.133V15.52a1.08 1.08 0 0 1 1.067-1.034c.573 0 1.048.461 1.066 1.034v-2.134l-.001-.033c0-.585.482-1.067 1.068-1.067.585 0 1.067.482 1.067 1.067l-.001.033v2.134a1.08 1.08 0 0 1 1.067-1.034c.573 0 1.048.461 1.066 1.034v2.133a1.08 1.08 0 0 1 1.066-1.034c.574 0 1.049.461 1.067 1.034v4.8h2.667v-14.4Z" style="fill:#0ea5e9;fill-rule:nonzero"/><path d="m27.733 16.585-.049-.001c-.559 0-1.019.46-1.019 1.019l.001.049v-2.133a1.08 1.08 0 0 0-1.066-1.034c-.574 0-1.049.461-1.067 1.034v-2.134l.001-.033c0-.585-.482-1.067-1.067-1.067-.586 0-1.067.482-1.067 1.067v2.167a1.08 1.08 0 0 0-1.066-1.034c-.574 0-1.049.461-1.067 1.034v7.465a2.169 2.169 0 0 0-2.133-2.133v5.866l2.133 4.8h8.532V17.652l.002-.061c0-.553-.455-1.008-1.008-1.008l-.06.002Zm-15.998 6.4V15.52l.002-.061a1.022 1.022 0 0 0-1.013-1.008l-.056.002-.049-.001a1.024 1.024 0 0 0-1.018 1.068v-2.134l.002-.06c0-.553-.455-1.008-1.008-1.008l-.06.002-.05-.001a1.022 1.022 0 0 0-1.017 1.067v2.134l.002-.061a1.02 1.02 0 0 0-1.013-1.007l-.055.001-.049-.001a1.024 1.024 0 0 0-1.018 1.068v2.133l.002-.061c0-.553-.455-1.008-1.008-1.008l-.06.002-.049-.001a1.024 1.024 0 0 0-1.018 1.068v13.865h8.533l2.133-4.8v-5.866a2.169 2.169 0 0 0-2.133 2.133Z" style="fill:#f43f5e;fill-rule:nonzero"/><path d="M31.466 7.52h-8.533V4.532l1.707 1.706.746-.746-2.666-2.666a.522.522 0 0 0-.728-.019l-2.685 2.685.747.746 1.706-1.706v2.986h-5.333V1.867l1.707 1.706.746-.746L16.214.16a.521.521 0 0 0-.728-.018l-.019.018-2.666 2.667.747.746 1.706-1.706v5.652H9.921V4.533l1.707 1.706.746-.746-2.346-2.666a.522.522 0 0 0-.728-.019l-.019.019-2.773 2.666.747.746 1.706-1.706v2.986H.43a.495.495 0 0 0-.427.534V22.45l-.001.031c0 .276.227.503.503.503l.032-.001H2.67v8.533l-.001.031c0 .276.227.503.503.503l.031-.001h8.533a.588.588 0 0 0 .533-.32l2.133-4.8v-3.946h3.2v3.947l2.133 4.8a.588.588 0 0 0 .533.32H28.8l.032.001a.51.51 0 0 0 .503-.503l-.001-.032v-8.533h2.133l.031.001a.51.51 0 0 0 .503-.503L32 22.45V8.053l.001-.032a.51.51 0 0 0-.505-.503l-.029.001-.001.001ZM13.334 26.61l-1.92 4.374H3.736V17.652l-.001-.032a.51.51 0 0 1 .508-.503l.027.001.031-.001c.276 0 .503.227.503.503l-.001.032v4.266h1.066v-6.4c0-.293.241-.534.534-.534.292 0 .533.241.533.534v6.4h1.067v-8.533c0-.292.241-.533.533-.533.292 0 .533.241.533.533v8.533h1.067v-6.4c0-.292.241-.533.533-.533.292 0 .533.241.533.533v9.066h1.067v-1.6a1.516 1.516 0 0 1 1.066-1.493l-.001 5.119Zm14.932 4.374h-7.68l-1.919-4.373v-5.12c.633.223 1.06.822 1.067 1.493v1.6H20.8V15.52c0-.293.241-.533.534-.533.292 0 .533.24.533.533v6.399h1.066v-8.533c0-.293.241-.533.534-.533.292 0 .533.24.533.533v8.533h1.066v-6.4c0-.293.241-.533.534-.533.292 0 .533.24.533.533v6.4H27.2v-4.266c0-.292.241-.533.533-.533.292 0 .533.241.533.533v13.331Zm2.666-9.066h-1.6v-4.266a1.66 1.66 0 0 0-1.6-1.6.953.953 0 0 0-.532.106v-.64a1.66 1.66 0 0 0-1.6-1.6.96.96 0 0 0-.534.107v-.64c0-.878-.722-1.6-1.6-1.6-.878 0-1.6.722-1.6 1.6v.64a.953.953 0 0 0-.532-.106c-.87.021-1.579.73-1.6 1.6v5.332a2.619 2.619 0 0 0-1.6-.533l-.031-.001a.51.51 0 0 0-.503.508l.001.026v1.067h-3.2V20.85l.001-.031a.51.51 0 0 0-.503-.503l-.031.001a2.619 2.619 0 0 0-1.6.533v-5.33a1.66 1.66 0 0 0-1.6-1.6.958.958 0 0 0-.533.106v-.64c0-.878-.722-1.6-1.6-1.6-.878 0-1.6.722-1.6 1.6v.64a.958.958 0 0 0-.533-.106c-.87.021-1.579.73-1.6 1.6v.64a.967.967 0 0 0-.533-.107c-.87.021-1.579.73-1.6 1.6v4.266h-1.6V8.586h29.863v13.332Z" style="fill:#e2e8f0;fill-rule:nonzero"/><path d="M2.136 9.652h4.266v1.067H2.136V9.652Zm5.866 0h4.266v1.067H8.002V9.652Zm5.866 0h4.266v1.067h-4.266V9.652Zm5.866 0H24v1.067h-4.266V9.652Zm5.866 0h4.266v1.067H25.6V9.652ZM4.802 11.786h1.067v1.067H4.802v-1.067Zm6.399 0h3.733v1.067h-3.733v-1.067Zm5.866 0H20.8v1.067h-3.733v-1.067Zm9.066 0H27.2v1.067h-1.067v-1.067Zm2.133 0h1.6v1.067h-1.6v-1.067Zm-26.13 0h1.6v1.067h-1.6v-1.067Zm0 2.133h1.6v1.067h-1.6v-1.067Zm11.732 0h4.266v1.067h-4.266v-1.067Zm14.398 0h1.6v1.067h-1.6v-1.067Zm-14.932 2.133h1.6v1.067h-1.6v-1.067Zm3.733 0h1.6v1.067h-1.6v-1.067Zm-3.199 2.133h4.266v1.067h-4.266v-1.067Z" style="fill:#e2e8f0;fill-rule:nonzero"/><path d="M31.465 8.053H.537V22.45h2.666v-4.8l-.002-.06a1.022 1.022 0 0 1 1.013-1.008l.056.002.06-.002c.553.005 1.005.46 1.008 1.013l-.002.056v-2.133l-.001-.049a1.024 1.024 0 0 1 1.068-1.018l.06-.002c.553.005 1.005.46 1.008 1.013l-.002.056v-2.134l-.001-.055a1.023 1.023 0 0 1 1.068-1.011l.058-.002c.553.005 1.005.46 1.008 1.013l-.002.056v2.134l-.001-.049a1.024 1.024 0 0 1 1.068-1.018l.061-.002c.553.005 1.005.46 1.008 1.013l-.002.056v7.465a2.169 2.169 0 0 1 2.133-2.133v1.6h4.266v-1.6a2.169 2.169 0 0 1 2.133 2.133V15.52a1.08 1.08 0 0 1 1.067-1.034c.573 0 1.048.461 1.066 1.034v-2.134l-.001-.033c0-.585.482-1.067 1.068-1.067.585 0 1.067.482 1.067 1.067l-.001.033v2.134a1.08 1.08 0 0 1 1.067-1.034c.573 0 1.048.461 1.066 1.034v2.133a1.08 1.08 0 0 1 1.066-1.034c.574 0 1.049.461 1.067 1.034v4.8h2.667v-14.4Z" style="fill:#0ea5e9;fill-rule:nonzero"/><path d="m27.733 16.585-.049-.001c-.559 0-1.019.46-1.019 1.019l.001.049v-2.133a1.08 1.08 0 0 0-1.066-1.034c-.574 0-1.049.461-1.067 1.034v-2.134l.001-.033c0-.585-.482-1.067-1.067-1.067-.586 0-1.067.482-1.067 1.067v2.167a1.08 1.08 0 0 0-1.066-1.034c-.574 0-1.049.461-1.067 1.034v7.465a2.169 2.169 0 0 0-2.133-2.133v5.866l2.133 4.8h8.532V17.652l.002-.061c0-.553-.455-1.008-1.008-1.008l-.06.002Zm-15.998 6.4V15.52l.002-.061a1.022 1.022 0 0 0-1.013-1.008l-.056.002-.049-.001a1.024 1.024 0 0 0-1.018 1.068v-2.134l.002-.06c0-.553-.455-1.008-1.008-1.008l-.06.002-.05-.001a1.022 1.022 0 0 0-1.017 1.067v2.134l.002-.061a1.02 1.02 0 0 0-1.013-1.007l-.055.001-.049-.001a1.024 1.024 0 0 0-1.018 1.068v2.133l.002-.061c0-.553-.455-1.008-1.008-1.008l-.06.002-.049-.001a1.024 1.024 0 0 0-1.018 1.068v13.865h8.533l2.133-4.8v-5.866a2.169 2.169 0 0 0-2.133 2.133Z" style="fill:#f87171;fill-rule:nonzero"/><path d="M31.466 7.52h-8.533V4.532l1.707 1.706.746-.746-2.666-2.666a.522.522 0 0 0-.728-.019l-2.685 2.685.747.746 1.706-1.706v2.986h-5.333V1.867l1.707 1.706.746-.746L16.214.16a.521.521 0 0 0-.728-.018l-.019.018-2.666 2.667.747.746 1.706-1.706v5.652H9.921V4.533l1.707 1.706.746-.746-2.346-2.666a.522.522 0 0 0-.728-.019l-.019.019-2.773 2.666.747.746 1.706-1.706v2.986H.43a.495.495 0 0 0-.427.534V22.45l-.001.031c0 .276.227.503.503.503l.032-.001H2.67v8.533l-.001.031c0 .276.227.503.503.503l.031-.001h8.533a.588.588 0 0 0 .533-.32l2.133-4.8v-3.946h3.2v3.947l2.133 4.8a.588.588 0 0 0 .533.32H28.8l.032.001a.51.51 0 0 0 .503-.503l-.001-.032v-8.533h2.133l.031.001a.51.51 0 0 0 .503-.503L32 22.45V8.053l.001-.032a.51.51 0 0 0-.505-.503l-.029.001-.001.001ZM13.334 26.61l-1.92 4.374H3.736V17.652l-.001-.032a.51.51 0 0 1 .508-.503l.027.001.031-.001c.276 0 .503.227.503.503l-.001.032v4.266h1.066v-6.4c0-.293.241-.534.534-.534.292 0 .533.241.533.534v6.4h1.067v-8.533c0-.292.241-.533.533-.533.292 0 .533.241.533.533v8.533h1.067v-6.4c0-.292.241-.533.533-.533.292 0 .533.241.533.533v9.066h1.067v-1.6a1.516 1.516 0 0 1 1.066-1.493l-.001 5.119Zm14.932 4.374h-7.68l-1.919-4.373v-5.12c.633.223 1.06.822 1.067 1.493v1.6H20.8V15.52c0-.293.241-.533.534-.533.292 0 .533.24.533.533v6.399h1.066v-8.533c0-.293.241-.533.534-.533.292 0 .533.24.533.533v8.533h1.066v-6.4c0-.293.241-.533.534-.533.292 0 .533.24.533.533v6.4H27.2v-4.266c0-.292.241-.533.533-.533.292 0 .533.241.533.533v13.331Zm2.666-9.066h-1.6v-4.266a1.66 1.66 0 0 0-1.6-1.6.953.953 0 0 0-.532.106v-.64a1.66 1.66 0 0 0-1.6-1.6.96.96 0 0 0-.534.107v-.64c0-.878-.722-1.6-1.6-1.6-.878 0-1.6.722-1.6 1.6v.64a.953.953 0 0 0-.532-.106c-.87.021-1.579.73-1.6 1.6v5.332a2.619 2.619 0 0 0-1.6-.533l-.031-.001a.51.51 0 0 0-.503.508l.001.026v1.067h-3.2V20.85l.001-.031a.51.51 0 0 0-.503-.503l-.031.001a2.619 2.619 0 0 0-1.6.533v-5.33a1.66 1.66 0 0 0-1.6-1.6.958.958 0 0 0-.533.106v-.64c0-.878-.722-1.6-1.6-1.6-.878 0-1.6.722-1.6 1.6v.64a.958.958 0 0 0-.533-.106c-.87.021-1.579.73-1.6 1.6v.64a.967.967 0 0 0-.533-.107c-.87.021-1.579.73-1.6 1.6v4.266h-1.6V8.586h29.863v13.332Z" style="fill:#cbd5e1;fill-rule:nonzero"/><path d="M2.136 9.652h4.266v1.067H2.136V9.652Zm5.866 0h4.266v1.067H8.002V9.652Zm5.866 0h4.266v1.067h-4.266V9.652Zm5.866 0H24v1.067h-4.266V9.652Zm5.866 0h4.266v1.067H25.6V9.652ZM4.802 11.786h1.067v1.067H4.802v-1.067Zm6.399 0h3.733v1.067h-3.733v-1.067Zm5.866 0H20.8v1.067h-3.733v-1.067Zm9.066 0H27.2v1.067h-1.067v-1.067Zm2.133 0h1.6v1.067h-1.6v-1.067Zm-26.13 0h1.6v1.067h-1.6v-1.067Zm0 2.133h1.6v1.067h-1.6v-1.067Zm11.732 0h4.266v1.067h-4.266v-1.067Zm14.398 0h1.6v1.067h-1.6v-1.067Zm-14.932 2.133h1.6v1.067h-1.6v-1.067Zm3.733 0h1.6v1.067h-1.6v-1.067Zm-3.199 2.133h4.266v1.067h-4.266v-1.067Z" style="fill:#cbd5e1;fill-rule:nonzero"/></svg>